<?xml version="1.0" encoding="utf-8"?>
<!-- Generator: Adobe Illustrator 24.0.0, SVG Export Plug-In . SVG Version: 6.00 Build 0)  -->
<svg version="1.1" id="Layer_1" xmlns="http://www.w3.org/2000/svg" xmlns:xlink="http://www.w3.org/1999/xlink" x="0px" y="0px"
	 viewBox="0 0 128 128" style="enable-background:new 0 0 128 128;" xml:space="preserve">
<style type="text/css">
	.st0{fill:#A7B1C2;}
</style>
<g>
	<path class="st0" d="M67.5,88.1C67.5,88.1,67.5,88.1,67.5,88.1l-7.1,0.1c-1.9,0-3.5,1.6-3.5,3.6c0,1.9,1.6,3.5,3.5,3.5h0.1l7-0.1
		c1.9,0,3.5-1.6,3.5-3.6C71,89.6,69.4,88.1,67.5,88.1z"/>
	<path class="st0" d="M56.4,77.6c0,1.9,1.6,3.5,3.5,3.5h8.2c1.9,0,3.5-1.6,3.5-3.5V64.9h6.7c1.9,0,3.5-1.6,3.5-3.5
		c0-1.9-1.6-3.5-3.5-3.5H68.1c-1.9,0-3.5,1.6-3.5,3.5v12.7h-4.7C58,74.1,56.4,75.7,56.4,77.6z"/>
	<path class="st0" d="M49.6,64.9H54c1.9,0,3.5-1.6,3.5-3.5c0-1.9-1.6-3.5-3.5-3.5h-4.4c-1.9,0-3.5,1.6-3.5,3.5
		C46.1,63.4,47.7,64.9,49.6,64.9z"/>
	<path class="st0" d="M107.5,75.1c-4.1-0.4-8-0.8-11.5-3.7c1.2-2,2.1-4,2.9-6.2c1.8-0.4,4.9-0.9,7.5,0.6c1.8,1,4.1,1.5,6.4,1.5
		c3.9,0,7.8-1.5,9.7-4.6c2.9-4.8,1.5-11.4-3-14.1c-1.7-1-3.8-0.5-4.8,1.2c-1,1.7-0.5,3.8,1.2,4.8c1.1,0.7,1.6,2.9,0.6,4.5
		c-0.7,1.1-4.4,1.8-6.7,0.6c-3.1-1.7-6.3-2-9.1-1.8c0.2-1.7,0.4-3.5,0.4-5.3c0-1.8-0.1-3.6-0.4-5.3c4.6-1.2,8-3.3,10.2-6.5
		c2.2-3.2,6.6-6,9.5-6c1.9,0,3.5-1.6,3.5-3.5c0-1.9-1.6-3.5-3.5-3.5c-5.9,0-12.3,4.7-15.3,9c-1.2,1.7-3.2,2.9-6.1,3.7
		c-1-2.8-2.3-5.5-3.9-8c1.9-0.6,3.7-1.6,5.2-2.8c3.3-2.7,5.2-6.4,5.2-10.6c0-5.8,3-7.3,4.8-7.7c1.8-0.4,3.8,0,5.1,1
		c1,0.8,1.5,1.9,1.5,3.2c0,1.9,1.6,3.5,3.5,3.5c1.9,0,3.5-1.6,3.5-3.5c0-3.5-1.5-6.6-4.2-8.7c-3-2.4-7.1-3.3-11-2.4
		c-2.8,0.6-5.3,2.2-7.1,4.4c-2.1,2.6-3.1,6-3.2,10.1c0,4.4-4,6.9-8.4,7.4c-2.1-2.1-4.5-4-7.1-5.5c2.6-1.6,6.6-4.4,6.6-11.5
		c0-1.9-1.6-3.5-3.5-3.5c-1.9,0-3.5,1.6-3.5,3.5c0,3.5-1.4,4.3-3.6,5.7c-1,0.6-2.2,1.3-3.2,2.4c-2.3-0.8-4.7-1.3-7.2-1.7
		c0.9-3,2.3-4.6,3.1-5.1c-0.1,0-0.1,0.1-0.1,0.1c4.5-1.7,2.1-8.2-3-6.4c-0.7,0.3-5.2,2.7-7.2,11.2c-6.2,0.4-12,2.4-17.1,5.5
		c-0.3-2,0-4,1-5.8c1.5-2.7,4.4-4.2,8.1-4.2c1.9,0,3.5-1.6,3.5-3.5C57,5.6,55.4,4,53.5,4C47.2,4,42,6.9,39.2,11.8
		c-2.4,4.2-2.6,9.3-0.8,13.9c-1.3,1.2-2.5,2.6-3.6,4c-2.3-0.4-3.9-1.1-4.9-2.1c-1.3-1.3-1.9-3.7-1.9-7.8C28,10.2,20,4,7.6,4
		C5.6,4,4,5.6,4,7.5S5.6,11,7.6,11c3.1,0,13.4,0.6,13.4,8.8c0,4.3,0.5,9.2,4,12.7c1.5,1.5,3.4,2.6,5.9,3.4c-1.3,2.6-2.3,5.3-3,8.1
		c-5.2,0.6-10.1-0.4-13.1-2.9c-2.5-2-3.7-5-3.7-8.9c0-3.8,1.4-5.3,1.5-5.3C12.5,27,12.5,27,12.5,27c4-3.5-0.7-8.8-4.6-5.3
		c-0.3,0.2-1.2,1.1-2.1,2.9C4.6,26.8,4,29.4,4,32.3c0,6,2.2,10.9,6.3,14.3c3.7,3,8.9,4.7,14.6,4.7c0.6,0,1.3,0,2-0.1
		c0,0.5,0,0.9,0,1.4c0,2.4,0.2,4.8,0.7,7.1c-2.5,1.1-4.4,3.1-6,4.8c-2.2,2.3-3.7,3.7-5.8,3.7c-2.4,0-3.6-1.1-4.2-2.1
		c-0.7-1.1-0.7-2.3-0.3-2.9c1-1.7,0.3-3.8-1.3-4.8c-1.7-0.9-3.8-0.3-4.8,1.3c-1.6,2.9-1.5,6.7,0.4,9.9c2.1,3.6,5.8,5.6,10.2,5.6
		c5.3,0,8.4-3.3,10.9-5.9c1.2-1.2,2.1-2.2,2.9-2.8c0.7,1.7,1.5,3.4,2.5,5v2.2c-1.5,3.3-4.2,8.8-12.2,9.9C8.2,85.3,4,92,4,97.2
		c0,1.9,1.6,3.5,3.5,3.5s3.5-1.6,3.5-3.5c0-2.6,3-5.7,9.8-6.6c4.8-0.7,8.9-2.6,12.1-5.8c0.5,2.5,1.3,4.9,2.3,7.2
		c-0.8,3.5-5.4,5.9-9.6,6.3c-1.9,0.2-3.4,1.9-3.2,3.8c0.2,1.8,1.7,3.2,3.5,3.2c0.1,0,0.2,0,0.3,0c4.8-0.4,9-2.3,11.9-5.1v20.3
		c0,1.9,1.6,3.5,3.5,3.5h44.4c1.9,0,3.5-1.6,3.5-3.5V97.6c0.7-1.2,1.4-2.4,2-3.6c3.2,3.9,7,6.2,12.9,6.7c1.5,0.1,2.6,0.7,3.4,1.7
		c0.6,0.9,0.8,1.7,0.8,1.8l0-0.1c0.7,4.5,7.7,3.4,6.9-1.1c-0.5-2.9-3.3-8.7-10.5-9.3c-4.7-0.4-7.2-2.1-10.5-7.8
		c0.5-2.1,0.9-4.2,1.1-6.4c3.9,1.9,7.7,2.2,11,2.6c5.7,0.6,8.6,0.8,10.2,7c0.4,1.6,1.8,2.6,3.4,2.6c0.3,0,0.6,0,0.9-0.1
		c1.9-0.5,3-2.4,2.5-4.3C120.9,76.5,113.5,75.7,107.5,75.1z M40.5,37.1c3.2,0,5,0.5,5.7,0.8c0.4,1.5,1.8,2.6,3.4,2.6
		c1.9,0,3.5-1.6,3.5-3.5c0-4-3.8-5.6-5.5-6.1c-1.2-0.4-2.5-0.6-3.8-0.7c4.5-4.1,10.3-6.8,16.7-7.6c0,0.6,0,1.2,0,1.8
		c0,1.9,1.6,3.5,3.5,3.5c1.9,0,3.5-1.6,3.5-3.5c0-0.6,0-1.2,0-1.7c5.2,0.6,9.9,2.5,14,5.4c-0.5,0.2-0.9,0.4-1.4,0.7
		c-3.8,2.1-6,5-6,8.2c0,1.9,1.6,3.5,3.5,3.5c1.9,0,3.5-1.6,3.5-3.5c0-0.2,0.6-1.1,2.5-2.1c1.2-0.7,2.6-1.1,3.6-1.3
		c1.9,2.3,3.4,4.9,4.6,7.7c-0.2,0-0.3,0-0.5,0c-1.9,0-3.5,1.6-3.5,3.5c0,1.9,1.6,3.5,3.5,3.5c0.8,0,1.6,0,2.4-0.1
		c0.2,1.4,0.3,2.9,0.3,4.4c0,1.5-0.1,3-0.3,4.4c-0.4-0.2-0.9-0.3-1.3-0.3c-1.9,0-3.5,1.6-3.5,3.5v10c0,0.1,0,0.3,0,0.4v5.6
		c0,6.3-1.9,12.8-5.5,18.1c-0.1,0.1-0.1,0.2-0.2,0.3c-4.3,6.2-10.9,10.6-19.2,10.6c-8.3,0-14.9-4.4-19.2-10.6
		c-0.1-0.1-0.1-0.2-0.2-0.3c-3.6-5.3-5.5-11.8-5.5-18.1V60.2c0-1.9-1.6-3.5-3.5-3.5c-0.5,0-0.9,0.1-1.3,0.3
		c-0.2-1.5-0.3-2.9-0.3-4.4c0-0.5,0-1.1,0-1.6l3.8,0.2c1.9,0.1,3.6-1.4,3.7-3.3c0.1-1.9-1.4-3.6-3.3-3.7l-3-0.2
		c0.7-2.4,1.8-4.8,3.1-6.9C38.9,37.1,39.7,37.1,40.5,37.1z M45.3,117v-11.4c5.3,4.4,11.8,6.7,18.7,6.7c6.9,0,13.4-2.3,18.7-6.7V117
		H45.3z"/>
</g>
</svg>
